<?xml version="1.0" encoding="utf-8"?>
<!-- Generator: Adobe Illustrator 25.2.0, SVG Export Plug-In . SVG Version: 6.00 Build 0)  -->
<svg version="1.1" id="Layer_1" xmlns="http://www.w3.org/2000/svg" xmlns:xlink="http://www.w3.org/1999/xlink" x="0px" y="0px"
	 viewBox="0 0 16.18 16.17" enable-background="new 0 0 16.18 16.17" xml:space="preserve">
<g>
	<g>
		<g>
			<path fill="#9ACA3C" d="M8.08,16.17C3.62,16.16,0,12.53,0.01,8.07C0.02,3.63,3.67,0,8.1,0.01c4.45,0.02,8.08,3.66,8.06,8.11
				C16.15,12.56,12.51,16.19,8.08,16.17z M3.32,13.9c0.04-2.4,1.19-3.99,3.41-4.83C5.06,8.05,5.17,6,6.11,5
				c1-1.08,2.67-1.16,3.75-0.17c0.54,0.5,0.83,1.13,0.85,1.87c0.02,1.04-0.45,1.81-1.3,2.37c2.27,0.84,3.42,2.45,3.46,4.86
				c2.21-1.74,3.4-4.89,2.48-7.99c-0.93-3.16-3.83-5.35-7.12-5.4C4.94,0.49,2,2.58,0.95,5.72C-0.08,8.79,1.02,12.06,3.32,13.9z
				 M8.09,15.66c0.48-0.06,0.97-0.09,1.45-0.18c0.97-0.17,1.86-0.55,2.68-1.09c0.04-0.03,0.09-0.09,0.09-0.14
				c-0.02-0.45,0.01-0.92-0.08-1.36c-0.4-2.13-2.31-3.59-4.48-3.41c-1.68,0.15-2.86,1.04-3.56,2.58c-0.31,0.68-0.35,1.4-0.33,2.13
				c0,0.11,0.04,0.17,0.13,0.22C5.23,15.21,6.6,15.62,8.09,15.66z M10.2,6.8c0-1.16-0.94-2.11-2.1-2.11c-1.17,0-2.12,0.93-2.12,2.09
				c0,1.17,0.95,2.13,2.11,2.13C9.25,8.91,10.2,7.96,10.2,6.8z"/>
		</g>
	</g>
	<g>
		<path fill="#FFFFFF" d="M14.29,7l0.04,0.04c0.28,0.28,0.28,0.72,0,1l-5.18,5.19C8.87,13.5,7.4,13.89,7.4,13.89s0.43-1.43,0.71-1.7
			L13.29,7C13.57,6.73,14.01,6.73,14.29,7z"/>
		<path fill="#9ACA3C" d="M7.03,14.25l0.13-0.43c0.08-0.25,0.46-1.5,0.77-1.81l5.18-5.19c0.37-0.37,0.98-0.37,1.35,0l0.04,0.04
			c0.37,0.37,0.37,0.98,0,1.35L9.32,13.4c-0.3,0.3-1.5,0.63-1.86,0.73L7.03,14.25z M13.79,7.05c-0.12,0-0.23,0.04-0.32,0.13
			l-5.18,5.19c-0.11,0.11-0.32,0.62-0.5,1.16c0.55-0.17,1.08-0.36,1.19-0.47l5.18-5.19c0.18-0.18,0.18-0.47,0-0.64l-0.04-0.04
			C14.02,7.09,13.9,7.05,13.79,7.05z"/>
	</g>
	<g>
		<path fill="#FFFFFF" d="M8.9,11.51c0,0,0.26,0.13,0.57,0.36c0.31,0.23,0.38,0.67,0.38,0.67"/>
		<path fill="#9ACA3C" d="M9.6,12.57c-0.02-0.09-0.1-0.37-0.28-0.5c-0.28-0.21-0.53-0.33-0.53-0.33l0.22-0.45
			c0.01,0.01,0.29,0.14,0.61,0.38c0.38,0.28,0.46,0.77,0.47,0.83L9.6,12.57z"/>
	</g>
	<path fill="#9ACA3C" d="M13.34,8.74c-0.02-0.09-0.1-0.37-0.28-0.5c-0.28-0.21-0.53-0.33-0.53-0.33l0.22-0.45
		c0.01,0.01,0.29,0.14,0.61,0.38c0.38,0.28,0.46,0.77,0.47,0.83L13.34,8.74z"/>
</g>
</svg>
