<?xml version="1.0" encoding="utf-8"?>
<!-- Generator: Adobe Illustrator 25.2.0, SVG Export Plug-In . SVG Version: 6.00 Build 0)  -->
<svg version="1.1" id="Layer_1" xmlns="http://www.w3.org/2000/svg" xmlns:xlink="http://www.w3.org/1999/xlink" x="0px" y="0px"
	 viewBox="0 0 175.42 39.16" enable-background="new 0 0 175.42 39.16" xml:space="preserve">
<path fill="#9ACA3C" d="M20.18,36.05V14.82c0,0,1.25-4.14,4.82-8.08c3.56-3.95,10.86-3.8,10.86-3.8s-0.12,5.81-2.44,9.33
	c-4.35,6.6-11.48,5.75-11.48,5.75v3.03c0,0,8.08-0.08,12.81-5.71c4.73-5.62,4.14-15.34,4.14-15.34s-9.61-0.32-14.26,3.2
	c-4.65,3.52-6.66,8.85-6.66,8.85s-0.29-0.78-3.44-2.48c-3.14-1.7-6.39-0.3-6.39-0.3s-0.53,5.05,1.91,8.51
	c2.44,3.46,5.96,3.27,5.96,3.27v-2.86c0,0-2.1,0.03-3.44-1.89c-1.59-2.29-1.38-4.58-1.38-4.58s1.65,0.3,3.52,1.46
	s2.42,2.52,2.42,2.52v10.16c0,0-1.02-1.44-3.8-2.65S5.8,22.43,5.8,22.43s-1.29,5.18,2.95,8.89c3.73,3.26,7.51,3.01,7.51,3.01v-3.01
	c0,0-2.33,0.23-4.99-1.78c-2.65-2.02-2.63-4.09-2.63-4.09s3.27-0.11,5.24,1.38s3.27,4.2,3.27,4.2v5.03h-0.01H0l0,3.11h175.42v-3.11
	H20.18z"/>
</svg>
