<?xml version="1.0" encoding="utf-8"?>
<!-- Generator: Adobe Illustrator 25.2.0, SVG Export Plug-In . SVG Version: 6.00 Build 0)  -->
<svg version="1.1" id="Layer_1" xmlns="http://www.w3.org/2000/svg" xmlns:xlink="http://www.w3.org/1999/xlink" x="0px" y="0px"
	 viewBox="0 0 149.65 149.22" enable-background="new 0 0 149.65 149.22" xml:space="preserve">
<g>
	<path fill="#FFFFFF" d="M140.86,74.16c0,36.49-29.58,66.08-66.08,66.08S8.7,110.66,8.7,74.16c0-36.49,29.58-66.08,66.08-66.08
		S140.86,37.67,140.86,74.16z"/>
	
		<circle fill="none" stroke="#FFFFFF" stroke-width="3.7957" stroke-linecap="round" stroke-miterlimit="10" cx="74.78" cy="74.62" r="72.28"/>
</g>
<g>
	<g>
		<g>
			<path fill="#9ACA3C" d="M34.85,92.92c0.01-0.04,0.03-0.07,0.04-0.08c0.01-0.01,0.01,0.01-0.02,0.08
				c-0.32,0.8-0.68,1.47-1.09,2.02c-0.41,0.55-0.87,0.99-1.38,1.34c-0.51,0.34-1.06,0.59-1.67,0.74c-0.6,0.15-1.26,0.23-1.97,0.23
				c-0.97,0-1.85-0.14-2.63-0.42c-0.78-0.28-1.45-0.68-2.01-1.19c-0.56-0.51-0.98-1.14-1.29-1.87c-0.3-0.73-0.45-1.55-0.45-2.46
				c0-0.56,0.1-1.18,0.31-1.85c0.21-0.67,0.56-1.3,1.05-1.88c0.49-0.58,1.15-1.07,1.97-1.46s1.84-0.59,3.06-0.59
				c1,0,1.89,0.16,2.67,0.48c0.78,0.32,1.44,0.77,1.97,1.36c0.54,0.58,0.94,1.29,1.23,2.12c0.28,0.83,0.43,1.76,0.44,2.79h-10.2
				c0.16,0.84,0.58,1.51,1.23,2.02c0.66,0.51,1.57,0.76,2.74,0.76c0.71,0,1.28-0.08,1.69-0.25c0.41-0.16,0.74-0.36,0.99-0.6
				c0.08-0.08,0.18-0.2,0.29-0.34s0.21-0.28,0.3-0.42s0.16-0.26,0.22-0.36c0.05-0.1,0.08-0.15,0.06-0.15h2.45V92.92z M28.68,87.7
				c-0.96,0-1.74,0.21-2.35,0.63c-0.6,0.42-1.04,1.01-1.32,1.76h7.36c-0.27-0.82-0.74-1.43-1.41-1.81
				C30.31,87.89,29.54,87.7,28.68,87.7z"/>
			<path fill="#9ACA3C" d="M36.41,89.65c0.15-0.8,0.37-1.46,0.67-2c0.29-0.53,0.67-0.96,1.12-1.28s0.98-0.54,1.59-0.67
				s1.31-0.2,2.09-0.2c0.74,0,1.44,0.05,2.09,0.15s1.22,0.29,1.71,0.56c0.49,0.27,0.87,0.63,1.16,1.09s0.43,1.05,0.43,1.76v5.43
				c0,0.07,0,0.14,0.01,0.22s0.01,0.15,0.01,0.22c0.1-0.01,0.25-0.05,0.47-0.1c0.22-0.05,0.58-0.16,1.07-0.33v2.26
				c-0.45,0.14-0.81,0.23-1.07,0.28c-0.26,0.05-0.53,0.07-0.8,0.07c-0.55,0-0.96-0.1-1.23-0.31s-0.47-0.47-0.58-0.8
				c-0.36,0.27-0.73,0.49-1.12,0.66c-0.39,0.16-0.78,0.29-1.16,0.37s-0.75,0.14-1.09,0.17s-0.65,0.04-0.91,0.04
				c-0.18,0-0.42-0.01-0.73-0.02c-0.31-0.01-0.64-0.06-1.01-0.13c-0.36-0.08-0.73-0.19-1.11-0.35c-0.38-0.16-0.72-0.37-1.02-0.64
				s-0.55-0.61-0.74-1.02c-0.19-0.41-0.29-0.91-0.29-1.5c0-0.66,0.14-1.2,0.41-1.63s0.63-0.78,1.06-1.04s0.92-0.45,1.45-0.58
				c0.54-0.12,1.06-0.2,1.58-0.23l3.54-0.23c0.21-0.01,0.36-0.03,0.47-0.05c0.11-0.02,0.19-0.05,0.25-0.09
				c0.06-0.04,0.09-0.11,0.09-0.2c0.01-0.09,0.01-0.21,0.01-0.36c0-0.18-0.02-0.36-0.07-0.53c-0.05-0.18-0.17-0.34-0.37-0.48
				c-0.2-0.14-0.5-0.26-0.89-0.34c-0.4-0.08-0.95-0.12-1.65-0.12c-0.52,0-0.96,0.03-1.31,0.09c-0.35,0.06-0.64,0.17-0.86,0.33
				c-0.23,0.16-0.4,0.36-0.52,0.61s-0.22,0.56-0.29,0.93h-2.46V89.65z M45.01,92.57v-0.68c-0.14,0.03-0.27,0.05-0.4,0.06
				c-0.13,0.01-0.27,0.03-0.42,0.04l-3.41,0.23c-0.84,0.05-1.41,0.2-1.73,0.42c-0.32,0.23-0.47,0.54-0.47,0.94
				c0,0.34,0.09,0.61,0.26,0.8s0.38,0.34,0.64,0.43c0.25,0.1,0.53,0.15,0.82,0.17s0.57,0.03,0.81,0.03c0.49,0,0.98-0.05,1.45-0.15
				s0.89-0.25,1.25-0.45s0.65-0.45,0.87-0.76C44.9,93.34,45.01,92.98,45.01,92.57z"/>
			<path fill="#58595B" d="M54.78,97.24c-0.7,0-1.35-0.07-1.96-0.21s-1.15-0.37-1.61-0.7c-0.46-0.33-0.84-0.76-1.12-1.29
				s-0.45-1.18-0.49-1.96H51c0.03,0.32,0.08,0.64,0.16,0.97c0.08,0.33,0.26,0.63,0.53,0.89c0.27,0.27,0.66,0.49,1.18,0.67
				s1.23,0.27,2.14,0.27c0.66,0,1.21-0.05,1.65-0.14c0.44-0.1,0.79-0.23,1.05-0.41s0.45-0.39,0.56-0.65
				c0.11-0.25,0.16-0.54,0.16-0.85c0-0.52-0.15-0.91-0.46-1.16s-0.75-0.42-1.33-0.5l-3.54-0.49c-0.32-0.04-0.65-0.12-1.01-0.23
				c-0.36-0.11-0.68-0.27-0.98-0.49s-0.55-0.51-0.75-0.86c-0.2-0.36-0.3-0.79-0.3-1.32c0-0.34,0.07-0.7,0.2-1.08
				c0.13-0.38,0.37-0.73,0.72-1.05c0.35-0.32,0.8-0.59,1.37-0.8c0.57-0.21,1.3-0.32,2.19-0.32c0.95,0,1.73,0.11,2.36,0.33
				c0.62,0.22,1.12,0.51,1.49,0.86c0.37,0.36,0.63,0.78,0.79,1.25c0.16,0.48,0.25,0.97,0.28,1.48h-1.4
				c-0.03-0.44-0.11-0.82-0.25-1.15s-0.35-0.6-0.63-0.81s-0.64-0.37-1.08-0.47s-0.97-0.15-1.6-0.15c-0.6,0-1.1,0.06-1.49,0.16
				c-0.39,0.11-0.7,0.25-0.93,0.43s-0.38,0.38-0.47,0.6s-0.13,0.44-0.13,0.66c0,0.48,0.15,0.84,0.45,1.07s0.75,0.39,1.34,0.47
				l3.19,0.45c0.48,0.07,0.93,0.17,1.34,0.31c0.41,0.14,0.77,0.33,1.07,0.57s0.54,0.55,0.71,0.92c0.17,0.37,0.26,0.82,0.26,1.34
				s-0.09,0.97-0.26,1.35c-0.17,0.38-0.4,0.69-0.69,0.94s-0.61,0.45-0.97,0.6s-0.72,0.27-1.1,0.35s-0.74,0.13-1.09,0.15
				C55.37,97.23,55.05,97.24,54.78,97.24z"/>
			<path fill="#58595B" d="M61.32,96.91v-7.4h1.36v7.4H61.32z"/>
		</g>
		<path fill="#9ACA3C" d="M55.1,40.16c-0.04,0-0.21-0.01-0.48-0.01c-1.55,0-6.95,0.17-11.27,2.33c-3.76,1.88-6.88,6.57-8.32,10.17
			c-0.75-0.78-1.75-1.6-3.01-2.24c-2-1.01-3.62-1.23-4.62-1.23c-0.9,0-1.47,0.17-1.64,0.22l-1.03,0.36l-0.01,1.09
			c0,0.21-0.03,5.26,2.25,8.04c2.17,2.65,4.42,2.99,5.15,3.03h0.97l-0.06-3.09l-0.75-0.01c-0.06,0-1.39-0.05-2.9-1.9
			c-0.97-1.18-1.33-3.25-1.47-4.62c0.67,0.07,1.58,0.29,2.7,0.86c2.22,1.13,3.41,3.19,3.47,3.29l0.08,0.13v10.34
			c-0.82-0.9-1.8-1.77-2.88-2.33c-2.32-1.21-5.32-1.39-6.9-1.39c-0.45,0-0.73,0.02-0.77,0.02l-1.24,0.07l-0.21,1.22
			c-0.03,0.16-0.63,4.03,2.86,7.53c3.4,3.4,7.08,3.54,7.24,3.54l0.78,0.02l0.09-3.08l-0.76-0.04c-0.11-0.01-2.7-0.18-5.15-2.63
			c-1.28-1.27-1.76-2.57-1.93-3.51c1.26,0.06,3.17,0.29,4.55,1.01c2.24,1.16,4.15,4.6,4.23,4.75l0.09,0.16v7.55h3.11v-23.7
			c0-1.95,3.39-8.81,7.47-10.85c2.94-1.47,6.62-1.86,8.68-1.97c-0.18,2.45-0.84,7.59-3.17,10.38c-4.17,5-9.66,5.15-10.28,5.15
			l-0.77,0.04l-0.11,3.04l0.95,0.02c1.23,0,7.62-0.3,12.6-6.27c3.91-4.7,3.96-13.58,3.96-13.95v-1.5L55.1,40.16z"/>
		<rect x="23.07" y="77.49" fill="#9ACA3C" width="104.03" height="3.11"/>
		<g>
			<path fill="#9ACA3C" d="M65.05,84.47c-1.05-1.02-2.19-1.5-3.37-1.42c-0.69,0.05-1.39,0.29-2.04,0.72
				c-0.51,0.33-0.82,0.66-0.89,0.76c-0.09,0.12-0.14,0.27-0.12,0.42s0.09,0.29,0.21,0.38c0.24,0.19,0.61,0.14,0.8-0.1
				c0.03-0.04,0.27-0.28,0.64-0.52c0.34-0.22,0.87-0.49,1.49-0.52c0.84-0.05,1.67,0.32,2.48,1.1c0.11,0.1,0.25,0.16,0.4,0.16
				c0.16,0,0.3-0.06,0.41-0.17C65.28,85.05,65.28,84.69,65.05,84.47z"/>
			<path fill="#9ACA3C" d="M61.7,84.87c-0.78,0.08-1.37,0.63-1.57,0.95c-0.08,0.13-0.1,0.28-0.06,0.43s0.13,0.27,0.26,0.35
				c0.09,0.06,0.19,0.08,0.3,0.08c0.2,0,0.39-0.11,0.49-0.28c0.03-0.05,0.32-0.36,0.71-0.4c0.32-0.04,0.66,0.13,1,0.49
				c0.21,0.22,0.58,0.23,0.81,0.03c0.23-0.22,0.24-0.58,0.03-0.8C62.88,84.89,62.15,84.82,61.7,84.87z"/>
			<path fill="#9ACA3C" d="M61.94,86.95c-0.47,0-0.85,0.38-0.85,0.85s0.38,0.86,0.85,0.86s0.86-0.38,0.86-0.86
				C62.79,87.34,62.41,86.95,61.94,86.95z"/>
		</g>
	</g>
	<g>
		<path fill="#58595B" d="M75.05,97.2h-6.61V86.39h6.71c1,0,1.78,0.24,2.32,0.72s0.81,1.19,0.81,2.13c0,0.43-0.08,0.84-0.24,1.25
			c-0.16,0.4-0.45,0.74-0.86,1c0.36,0.17,0.64,0.39,0.83,0.63c0.19,0.25,0.34,0.5,0.43,0.75c0.07,0.16,0.11,0.31,0.13,0.45
			s0.03,0.26,0.03,0.37v0.24v0.1c0,0.31-0.05,0.65-0.15,1.01s-0.28,0.71-0.54,1.02c-0.26,0.32-0.62,0.58-1.08,0.79
			C76.37,97.09,75.77,97.2,75.05,97.2z M74.77,87.67h-5v3.25h5.08c0.11,0,0.28-0.01,0.51-0.02c0.23-0.01,0.47-0.07,0.7-0.17
			c0.23-0.1,0.44-0.26,0.62-0.49c0.18-0.23,0.27-0.56,0.27-0.98c0-0.56-0.21-0.97-0.64-1.22C75.89,87.8,75.37,87.67,74.77,87.67z
			 M74.75,92.25h-4.98v3.62h5.16c0.05,0,0.13,0,0.23,0.01c0.1,0.01,0.21,0,0.33-0.03c0.29-0.03,0.56-0.09,0.8-0.2
			c0.27-0.12,0.5-0.3,0.69-0.55s0.29-0.61,0.29-1.09c0-0.44-0.09-0.78-0.26-1.02c-0.17-0.24-0.39-0.42-0.64-0.52
			c-0.25-0.11-0.53-0.17-0.82-0.18C75.26,92.26,74.99,92.25,74.75,92.25z"/>
		<path fill="#58595B" d="M85.54,97.52c-0.91,0-1.73-0.15-2.45-0.46c-0.72-0.31-1.33-0.73-1.83-1.26s-0.87-1.14-1.14-1.83
			c-0.26-0.69-0.39-1.42-0.39-2.18c0-0.75,0.13-1.47,0.39-2.16s0.64-1.3,1.14-1.83s1.11-0.95,1.83-1.27
			c0.72-0.31,1.54-0.47,2.45-0.47c0.91,0,1.73,0.16,2.45,0.47c0.72,0.31,1.33,0.74,1.83,1.27s0.87,1.14,1.14,1.83
			c0.26,0.69,0.39,1.41,0.39,2.16c0,0.76-0.13,1.49-0.39,2.18s-0.64,1.3-1.14,1.83s-1.11,0.95-1.83,1.26
			C87.27,97.36,86.45,97.52,85.54,97.52z M85.54,87.37c-0.75,0-1.4,0.13-1.96,0.38s-1.02,0.59-1.39,1
			c-0.37,0.42-0.64,0.89-0.82,1.42s-0.27,1.07-0.27,1.62s0.09,1.09,0.27,1.62c0.18,0.53,0.46,1,0.82,1.42
			c0.37,0.42,0.83,0.75,1.39,0.99c0.56,0.25,1.21,0.37,1.96,0.37s1.4-0.12,1.96-0.37s1.02-0.58,1.39-0.99s0.64-0.89,0.82-1.42
			s0.27-1.07,0.27-1.62s-0.09-1.09-0.27-1.62c-0.18-0.53-0.46-1-0.82-1.42c-0.37-0.42-0.83-0.75-1.39-1S86.29,87.37,85.54,87.37z"/>
		<path fill="#58595B" d="M94.36,87.91c0.37-0.51,0.88-0.94,1.52-1.31c0.64-0.36,1.44-0.54,2.4-0.54c0.79,0,1.45,0.08,1.99,0.25
			s0.98,0.38,1.34,0.64c0.35,0.26,0.63,0.56,0.81,0.89c0.19,0.34,0.33,0.67,0.42,1c0.09,0.34,0.15,0.66,0.16,0.96
			c0.01,0.31,0.02,0.56,0.02,0.76v6.61h-1.37V90.6c0-0.5-0.05-0.94-0.14-1.35c-0.09-0.4-0.27-0.74-0.52-1.02s-0.6-0.5-1.04-0.65
			s-1-0.23-1.69-0.23c-0.7,0-1.29,0.1-1.78,0.3c-0.49,0.2-0.89,0.47-1.21,0.8c-0.32,0.34-0.55,0.72-0.69,1.15
			c-0.15,0.43-0.22,0.86-0.22,1.31v6.27h-1.37V86.39h1.37L94.36,87.91L94.36,87.91z"/>
		<path fill="#58595B" d="M113.93,95.67c-0.38,0.51-0.88,0.94-1.53,1.31c-0.64,0.36-1.44,0.54-2.39,0.54
			c-0.79,0-1.45-0.08-1.99-0.25s-0.98-0.38-1.34-0.64c-0.35-0.26-0.63-0.56-0.81-0.89c-0.19-0.33-0.33-0.67-0.42-1
			s-0.15-0.65-0.16-0.95c-0.01-0.3-0.02-0.56-0.02-0.77v-6.61h1.37v6.57c0,0.5,0.05,0.94,0.14,1.34c0.09,0.4,0.27,0.73,0.52,1.01
			s0.6,0.5,1.04,0.65s1.01,0.23,1.69,0.23c0.7,0,1.29-0.1,1.78-0.3c0.49-0.2,0.89-0.47,1.21-0.79c0.31-0.33,0.55-0.71,0.69-1.13
			c0.15-0.43,0.22-0.86,0.22-1.31v-6.27h1.37v10.81h-1.37L113.93,95.67L113.93,95.67z"/>
		<path fill="#58595B" d="M121.88,97.52c-0.68,0-1.32-0.07-1.92-0.2c-0.6-0.13-1.12-0.36-1.57-0.68c-0.45-0.32-0.82-0.74-1.1-1.26
			c-0.28-0.52-0.44-1.16-0.48-1.92h1.37c0.03,0.31,0.08,0.62,0.16,0.94s0.25,0.61,0.51,0.87s0.65,0.48,1.16,0.65
			c0.51,0.17,1.21,0.26,2.09,0.26c0.64,0,1.18-0.05,1.61-0.14c0.43-0.09,0.77-0.23,1.02-0.4s0.44-0.39,0.54-0.63
			c0.11-0.25,0.16-0.53,0.16-0.83c0-0.51-0.15-0.89-0.45-1.14s-0.73-0.41-1.3-0.49l-3.46-0.48c-0.31-0.04-0.64-0.11-0.98-0.22
			c-0.35-0.11-0.67-0.27-0.96-0.48c-0.29-0.21-0.53-0.5-0.73-0.84c-0.2-0.35-0.3-0.78-0.3-1.29c0-0.34,0.06-0.69,0.2-1.06
			c0.13-0.37,0.36-0.71,0.7-1.02c0.34-0.31,0.79-0.58,1.34-0.78c0.56-0.21,1.27-0.31,2.14-0.31c0.92,0,1.69,0.11,2.3,0.32
			s1.09,0.5,1.46,0.84c0.36,0.35,0.62,0.76,0.77,1.23c0.15,0.47,0.24,0.95,0.27,1.45h-1.37c-0.03-0.43-0.11-0.8-0.24-1.13
			c-0.13-0.32-0.34-0.59-0.61-0.79c-0.27-0.21-0.63-0.36-1.06-0.46s-0.95-0.15-1.57-0.15c-0.59,0-1.07,0.05-1.46,0.16
			c-0.38,0.11-0.68,0.25-0.9,0.42s-0.37,0.37-0.46,0.58c-0.09,0.21-0.13,0.43-0.13,0.64c0,0.47,0.15,0.82,0.44,1.04
			c0.29,0.23,0.73,0.38,1.31,0.46l3.11,0.44c0.47,0.07,0.9,0.17,1.31,0.3c0.4,0.13,0.75,0.32,1.04,0.55s0.53,0.53,0.69,0.89
			c0.17,0.36,0.25,0.8,0.25,1.31c0,0.51-0.08,0.95-0.25,1.32s-0.39,0.67-0.67,0.91c-0.28,0.24-0.6,0.44-0.94,0.58
			c-0.35,0.15-0.71,0.26-1.07,0.34c-0.37,0.08-0.72,0.13-1.06,0.15C122.46,97.51,122.15,97.52,121.88,97.52z"/>
	</g>
</g>
</svg>
