<?xml version="1.0" encoding="utf-8"?>
<!-- Generator: Adobe Illustrator 25.2.0, SVG Export Plug-In . SVG Version: 6.00 Build 0)  -->
<svg version="1.1" id="Layer_1" xmlns="http://www.w3.org/2000/svg" xmlns:xlink="http://www.w3.org/1999/xlink" x="0px" y="0px"
	 viewBox="0 0 185.21 101.18" enable-background="new 0 0 185.21 101.18" xml:space="preserve">
<g>
	<g>
		<g>
			<path fill="#9ACA3C" d="M22.48,93.07c0.02-0.07,0.05-0.12,0.07-0.15c0.02-0.02,0.01,0.03-0.04,0.15c-0.56,1.4-1.2,2.59-1.92,3.56
				c-0.73,0.97-1.54,1.75-2.43,2.36c-0.89,0.6-1.87,1.04-2.94,1.31c-1.06,0.27-2.23,0.4-3.48,0.4c-1.72,0-3.27-0.25-4.64-0.74
				c-1.38-0.5-2.56-1.2-3.54-2.1c-0.98-0.91-1.74-2.01-2.27-3.3c-0.53-1.29-0.8-2.74-0.8-4.33c0-0.99,0.18-2.08,0.54-3.27
				c0.36-1.19,0.98-2.29,1.85-3.32s2.03-1.89,3.48-2.58c1.45-0.69,3.25-1.03,5.41-1.03c1.76,0,3.34,0.29,4.72,0.85
				c1.38,0.57,2.54,1.37,3.48,2.39c0.94,1.03,1.66,2.27,2.16,3.74c0.49,1.46,0.75,3.1,0.78,4.92H4.92c0.29,1.48,1.02,2.66,2.18,3.56
				c1.16,0.9,2.77,1.34,4.83,1.34c1.26,0,2.25-0.14,2.98-0.43c0.72-0.29,1.31-0.64,1.74-1.05c0.14-0.15,0.31-0.35,0.51-0.6
				c0.19-0.25,0.37-0.5,0.53-0.74c0.16-0.24,0.29-0.45,0.38-0.64c0.1-0.18,0.13-0.27,0.11-0.27h4.3V93.07z M11.59,83.86
				c-1.69,0-3.07,0.37-4.14,1.11c-1.06,0.74-1.84,1.77-2.32,3.1h12.99c-0.48-1.45-1.31-2.51-2.48-3.19
				C14.46,84.2,13.12,83.86,11.59,83.86z"/>
			<path fill="#9ACA3C" d="M25.23,87.31c0.26-1.4,0.66-2.58,1.18-3.52c0.52-0.94,1.18-1.69,1.98-2.25s1.74-0.95,2.81-1.18
				c1.08-0.23,2.3-0.35,3.68-0.35c1.31,0,2.53,0.09,3.68,0.27c1.15,0.18,2.15,0.51,3.01,0.98c0.86,0.47,1.54,1.11,2.05,1.92
				s0.76,1.85,0.76,3.1v9.58c0,0.12,0,0.25,0.02,0.38c0.01,0.13,0.02,0.26,0.02,0.38c0.17-0.02,0.45-0.08,0.83-0.18
				c0.39-0.1,1.02-0.29,1.89-0.58v3.99c-0.8,0.24-1.43,0.41-1.89,0.49s-0.93,0.13-1.41,0.13c-0.97,0-1.69-0.18-2.18-0.54
				c-0.48-0.36-0.82-0.83-1.02-1.42c-0.63,0.48-1.29,0.87-1.98,1.16c-0.69,0.29-1.37,0.51-2.05,0.65c-0.68,0.15-1.32,0.24-1.92,0.29
				c-0.61,0.05-1.14,0.07-1.6,0.07c-0.31,0-0.74-0.01-1.29-0.04c-0.54-0.02-1.14-0.1-1.78-0.24c-0.64-0.13-1.29-0.34-1.96-0.62
				s-1.26-0.65-1.79-1.12c-0.53-0.47-0.97-1.07-1.31-1.8c-0.34-0.72-0.51-1.61-0.51-2.65c0-1.16,0.24-2.12,0.72-2.88
				s1.11-1.37,1.87-1.83c0.76-0.46,1.61-0.8,2.56-1.02c0.94-0.22,1.87-0.35,2.79-0.4l6.24-0.4c0.36-0.02,0.64-0.05,0.83-0.09
				c0.19-0.04,0.34-0.09,0.43-0.16c0.1-0.07,0.15-0.19,0.16-0.34c0.01-0.16,0.02-0.37,0.02-0.64c0-0.31-0.04-0.63-0.13-0.94
				s-0.3-0.6-0.65-0.85c-0.35-0.25-0.88-0.45-1.58-0.6c-0.7-0.15-1.67-0.22-2.9-0.22c-0.92,0-1.69,0.05-2.3,0.16
				c-0.62,0.11-1.13,0.3-1.52,0.58c-0.4,0.28-0.71,0.64-0.93,1.07c-0.22,0.43-0.39,0.98-0.51,1.63h-4.32V87.31z M40.4,92.46v-1.2
				c-0.24,0.05-0.48,0.08-0.71,0.11c-0.23,0.02-0.48,0.05-0.74,0.07l-6.02,0.4c-1.48,0.1-2.49,0.34-3.05,0.74
				c-0.56,0.4-0.83,0.95-0.83,1.65c0,0.61,0.15,1.08,0.45,1.42s0.68,0.59,1.12,0.76c0.45,0.17,0.93,0.27,1.45,0.31
				c0.52,0.04,1,0.05,1.43,0.05c0.87,0,1.72-0.09,2.56-0.27c0.83-0.18,1.57-0.45,2.21-0.8s1.15-0.8,1.54-1.34
				C40.2,93.82,40.4,93.18,40.4,92.46z"/>
			<path fill="#58595B" d="M57.63,100.7c-1.23,0-2.39-0.12-3.46-0.37c-1.08-0.24-2.02-0.65-2.84-1.23s-1.48-1.34-1.98-2.27
				c-0.5-0.93-0.79-2.09-0.86-3.46h2.47c0.05,0.56,0.15,1.12,0.29,1.7c0.15,0.58,0.45,1.11,0.93,1.58c0.47,0.47,1.17,0.87,2.08,1.18
				c0.92,0.31,2.18,0.47,3.77,0.47c1.16,0,2.13-0.08,2.9-0.25c0.77-0.17,1.39-0.41,1.85-0.72s0.79-0.7,0.98-1.14
				c0.19-0.45,0.29-0.95,0.29-1.51c0-0.92-0.27-1.6-0.82-2.05c-0.54-0.45-1.32-0.74-2.34-0.89l-6.24-0.87
				c-0.56-0.07-1.15-0.21-1.78-0.4s-1.21-0.48-1.73-0.87c-0.52-0.39-0.97-0.89-1.32-1.52c-0.36-0.63-0.54-1.4-0.54-2.32
				c0-0.61,0.12-1.24,0.35-1.9c0.23-0.67,0.66-1.28,1.27-1.85c0.61-0.57,1.42-1.04,2.42-1.41c1-0.37,2.29-0.56,3.86-0.56
				c1.67,0,3.05,0.19,4.15,0.58s1.98,0.9,2.63,1.52c0.65,0.63,1.12,1.37,1.4,2.21c0.28,0.85,0.44,1.72,0.49,2.61h-2.47
				c-0.05-0.77-0.19-1.45-0.43-2.03s-0.61-1.06-1.11-1.43c-0.5-0.37-1.13-0.65-1.9-0.83c-0.77-0.18-1.72-0.27-2.83-0.27
				c-1.07,0-1.94,0.1-2.63,0.29c-0.69,0.19-1.23,0.45-1.63,0.76c-0.4,0.31-0.68,0.67-0.84,1.05c-0.16,0.39-0.24,0.77-0.24,1.16
				c0,0.85,0.27,1.48,0.8,1.89c0.53,0.41,1.32,0.69,2.36,0.83l5.62,0.8c0.85,0.12,1.63,0.3,2.36,0.54c0.73,0.24,1.36,0.58,1.89,1
				s0.95,0.96,1.25,1.61c0.3,0.65,0.45,1.44,0.45,2.36s-0.15,1.71-0.45,2.38c-0.3,0.67-0.71,1.22-1.22,1.65
				c-0.51,0.43-1.08,0.79-1.71,1.05c-0.63,0.27-1.27,0.47-1.94,0.62c-0.66,0.14-1.31,0.24-1.92,0.27
				C58.66,100.68,58.11,100.7,57.63,100.7z"/>
			<path fill="#58595B" d="M69.17,100.11V87.06h2.39v13.05C71.56,100.11,69.17,100.11,69.17,100.11z"/>
		</g>
		<path fill="#9ACA3C" d="M58.2,0.01C58.13,0.01,57.84,0,57.35,0C54.62,0,45.1,0.3,37.47,4.11c-6.64,3.32-12.13,11.58-14.68,17.93
			c-1.33-1.37-3.09-2.83-5.3-3.95c-3.52-1.79-6.38-2.17-8.15-2.17c-1.59,0-2.59,0.29-2.89,0.39l-1.82,0.64l-0.01,1.92
			c0,0.38-0.05,9.28,3.97,14.19c3.83,4.67,7.8,5.28,9.08,5.34l1.71,0.01l-0.1-5.45l-1.33-0.03c-0.1,0-2.45-0.08-5.12-3.35
			c-1.71-2.08-2.35-5.74-2.59-8.14c1.17,0.13,2.78,0.52,4.76,1.52c3.92,1.99,6.01,5.62,6.11,5.8l0.14,0.23v18.25
			c-1.45-1.59-3.17-3.12-5.08-4.12C12.08,40.99,6.79,40.67,4,40.67c-0.79,0-1.29,0.03-1.36,0.03l-2.17,0.14L0.1,43
			c-0.05,0.29-1.12,7.11,5.05,13.28c6,6.01,12.5,6.24,12.77,6.24l1.37,0.03l0.17-5.43l-1.34-0.07c-0.19-0.01-4.76-0.31-9.09-4.64
			c-2.25-2.25-3.1-4.53-3.41-6.19c2.22,0.11,5.59,0.51,8.03,1.78c3.94,2.05,7.31,8.12,7.46,8.39l0.16,0.28v13.32h5.48V28.15
			c0-3.44,5.99-15.54,13.18-19.14c5.18-2.59,11.68-3.29,15.32-3.47c-0.32,4.32-1.48,13.39-5.59,18.31
			c-7.35,8.83-17.04,9.08-18.14,9.08l-1.36,0.08l-0.19,5.36l1.68,0.04c2.17,0,13.45-0.53,22.22-11.05
			c6.9-8.28,6.98-23.95,6.98-24.61V0.1L58.2,0.01z"/>
		<rect x="1.71" y="65.86" fill="#9ACA3C" width="183.5" height="5.48"/>
		<g>
			<path fill="#9ACA3C" d="M75.75,78.17c-1.85-1.8-3.86-2.64-5.94-2.5c-1.22,0.08-2.46,0.52-3.59,1.26
				c-0.89,0.59-1.44,1.17-1.57,1.34c-0.17,0.21-0.24,0.47-0.21,0.74c0.03,0.27,0.17,0.51,0.38,0.67c0.42,0.33,1.08,0.25,1.41-0.17
				c0.05-0.07,0.47-0.5,1.12-0.92c0.59-0.38,1.53-0.86,2.63-0.92c1.49-0.09,2.95,0.56,4.37,1.94c0.19,0.18,0.44,0.29,0.7,0.29
				c0.27,0,0.53-0.11,0.72-0.3C76.16,79.19,76.15,78.56,75.75,78.17z"/>
			<path fill="#9ACA3C" d="M69.84,78.87c-1.38,0.15-2.42,1.1-2.76,1.67c-0.14,0.23-0.18,0.5-0.11,0.76
				c0.07,0.26,0.23,0.48,0.45,0.61c0.16,0.1,0.34,0.15,0.52,0.15c0.35,0,0.68-0.19,0.86-0.49c0.05-0.08,0.56-0.63,1.25-0.7
				c0.57-0.06,1.16,0.23,1.76,0.87c0.36,0.39,1.03,0.41,1.42,0.05c0.4-0.38,0.42-1.02,0.05-1.42C71.91,78.9,70.63,78.78,69.84,78.87
				z"/>
			<path fill="#9ACA3C" d="M70.26,82.55c-0.83,0-1.51,0.68-1.51,1.51s0.68,1.51,1.51,1.51s1.51-0.68,1.51-1.51
				C71.77,83.22,71.09,82.55,70.26,82.55z"/>
		</g>
	</g>
	<g>
		<path fill="#58595B" d="M93.39,100.61H81.73V81.55h11.84c1.77,0,3.14,0.43,4.09,1.28c0.96,0.85,1.44,2.1,1.44,3.76
			c0,0.76-0.14,1.49-0.43,2.2c-0.28,0.71-0.79,1.3-1.52,1.77c0.64,0.31,1.13,0.68,1.47,1.12c0.34,0.44,0.6,0.88,0.76,1.33
			c0.12,0.28,0.2,0.55,0.23,0.8c0.04,0.25,0.05,0.47,0.05,0.66v0.42v0.18c0,0.54-0.09,1.14-0.27,1.79c-0.18,0.65-0.5,1.25-0.96,1.81
			s-1.1,1.02-1.91,1.4C95.71,100.43,94.66,100.61,93.39,100.61z M92.89,83.82h-8.82v5.74h8.97c0.19,0,0.49-0.01,0.9-0.04
			c0.41-0.02,0.83-0.12,1.24-0.3c0.41-0.18,0.78-0.47,1.1-0.87c0.32-0.4,0.48-0.98,0.48-1.74c0-0.99-0.38-1.71-1.13-2.14
			C94.86,84.04,93.95,83.82,92.89,83.82z M92.85,91.9h-8.78v6.38h9.11c0.09,0,0.23,0.01,0.41,0.02c0.18,0.01,0.37-0.01,0.58-0.05
			c0.52-0.05,0.99-0.16,1.42-0.35c0.47-0.21,0.88-0.54,1.22-0.97c0.34-0.44,0.51-1.08,0.51-1.93c0-0.78-0.15-1.38-0.46-1.81
			c-0.31-0.42-0.69-0.73-1.13-0.92c-0.45-0.19-0.93-0.3-1.45-0.32C93.75,91.91,93.28,91.9,92.85,91.9z"/>
		<path fill="#58595B" d="M111.88,101.18c-1.61,0-3.05-0.27-4.32-0.81c-1.28-0.54-2.35-1.28-3.23-2.21c-0.87-0.93-1.54-2.01-2-3.22
			c-0.46-1.22-0.69-2.5-0.69-3.84c0-1.32,0.23-2.59,0.69-3.81s1.13-2.29,2-3.22c0.87-0.93,1.95-1.68,3.23-2.23
			c1.28-0.55,2.72-0.83,4.32-0.83c1.61,0,3.05,0.28,4.32,0.83c1.28,0.55,2.35,1.3,3.22,2.23c0.87,0.93,1.54,2.01,2,3.22
			c0.46,1.22,0.69,2.49,0.69,3.81c0,1.35-0.23,2.63-0.69,3.84c-0.46,1.22-1.13,2.29-2,3.22c-0.87,0.93-1.95,1.67-3.22,2.21
			C114.93,100.91,113.49,101.18,111.88,101.18z M111.88,83.29c-1.32,0-2.48,0.22-3.46,0.67c-0.98,0.45-1.8,1.04-2.45,1.77
			c-0.65,0.73-1.13,1.57-1.45,2.5c-0.32,0.93-0.48,1.88-0.48,2.85s0.16,1.92,0.48,2.85c0.32,0.93,0.8,1.77,1.45,2.5
			c0.65,0.73,1.46,1.32,2.45,1.75c0.98,0.44,2.13,0.66,3.46,0.66c1.32,0,2.47-0.22,3.46-0.66c0.98-0.44,1.79-1.02,2.44-1.75
			c0.65-0.73,1.13-1.57,1.45-2.5c0.32-0.93,0.48-1.88,0.48-2.85s-0.16-1.92-0.48-2.85c-0.32-0.93-0.8-1.77-1.45-2.5
			c-0.65-0.73-1.46-1.32-2.44-1.77S113.21,83.29,111.88,83.29z"/>
		<path fill="#58595B" d="M127.44,84.24c0.66-0.9,1.55-1.67,2.68-2.3c1.12-0.64,2.53-0.96,4.23-0.96c1.39,0,2.56,0.15,3.51,0.44
			c0.94,0.3,1.73,0.67,2.36,1.13c0.63,0.46,1.1,0.99,1.44,1.58c0.33,0.59,0.58,1.18,0.74,1.77c0.17,0.59,0.26,1.16,0.28,1.7
			c0.02,0.54,0.04,0.99,0.04,1.35v11.66h-2.41V89.02c0-0.87-0.08-1.67-0.25-2.38c-0.17-0.71-0.47-1.31-0.92-1.81
			s-1.06-0.88-1.84-1.15c-0.78-0.27-1.77-0.41-2.98-0.41c-1.23,0-2.27,0.18-3.14,0.53c-0.86,0.35-1.57,0.83-2.13,1.42
			s-0.96,1.26-1.22,2.02s-0.39,1.52-0.39,2.3v11.06h-2.41V81.55h2.41L127.44,84.24L127.44,84.24z"/>
		<path fill="#58595B" d="M161.96,97.92c-0.66,0.9-1.56,1.67-2.69,2.3c-1.13,0.64-2.54,0.96-4.22,0.96c-1.39,0-2.56-0.15-3.51-0.44
			c-0.95-0.3-1.73-0.67-2.36-1.13c-0.63-0.46-1.1-0.99-1.44-1.58c-0.33-0.59-0.58-1.18-0.74-1.77c-0.17-0.59-0.26-1.15-0.28-1.68
			s-0.04-0.99-0.04-1.36V81.55h2.41v11.59c0,0.87,0.08,1.66,0.25,2.36s0.47,1.29,0.92,1.79s1.06,0.88,1.84,1.15s1.77,0.41,2.98,0.41
			c1.23,0,2.27-0.18,3.14-0.53c0.86-0.35,1.57-0.82,2.13-1.4c0.55-0.58,0.96-1.25,1.22-2c0.26-0.76,0.39-1.52,0.39-2.3V81.55h2.41
			v19.07h-2.41V97.92z"/>
		<path fill="#58595B" d="M175.99,101.18c-1.2,0-2.33-0.12-3.38-0.35c-1.05-0.24-1.98-0.64-2.77-1.2c-0.8-0.57-1.44-1.31-1.93-2.21
			c-0.49-0.91-0.77-2.04-0.84-3.38h2.41c0.05,0.54,0.14,1.1,0.28,1.66c0.14,0.57,0.44,1.08,0.9,1.54c0.46,0.46,1.14,0.85,2.04,1.15
			c0.9,0.31,2.13,0.46,3.69,0.46c1.13,0,2.08-0.08,2.84-0.25s1.36-0.4,1.81-0.71s0.77-0.68,0.96-1.12s0.28-0.93,0.28-1.47
			c0-0.9-0.27-1.57-0.8-2c-0.53-0.44-1.29-0.73-2.29-0.87l-6.1-0.85c-0.54-0.07-1.12-0.2-1.74-0.39c-0.61-0.19-1.18-0.47-1.69-0.85
			c-0.51-0.38-0.94-0.87-1.29-1.49c-0.35-0.61-0.52-1.37-0.52-2.27c0-0.59,0.11-1.21,0.34-1.86c0.23-0.65,0.64-1.25,1.24-1.81
			c0.6-0.55,1.39-1.02,2.37-1.38c0.98-0.37,2.24-0.55,3.77-0.55c1.63,0,2.98,0.19,4.06,0.57c1.07,0.38,1.93,0.87,2.57,1.49
			c0.64,0.61,1.09,1.33,1.36,2.16s0.43,1.68,0.48,2.55h-2.41c-0.05-0.76-0.19-1.42-0.43-1.99c-0.24-0.57-0.6-1.03-1.08-1.4
			c-0.48-0.37-1.11-0.64-1.86-0.82c-0.75-0.18-1.68-0.27-2.76-0.27c-1.04,0-1.9,0.09-2.57,0.28c-0.67,0.19-1.21,0.44-1.6,0.74
			c-0.39,0.31-0.66,0.65-0.81,1.03c-0.15,0.38-0.23,0.76-0.23,1.13c0,0.83,0.26,1.44,0.78,1.84c0.52,0.4,1.29,0.67,2.3,0.82
			l5.49,0.78c0.83,0.12,1.59,0.3,2.3,0.53c0.71,0.24,1.32,0.56,1.84,0.97c0.52,0.41,0.93,0.94,1.22,1.58
			c0.29,0.64,0.44,1.41,0.44,2.3c0,0.9-0.15,1.67-0.44,2.32c-0.3,0.65-0.69,1.19-1.19,1.61s-1.05,0.77-1.67,1.03
			c-0.61,0.26-1.25,0.46-1.9,0.6s-1.28,0.23-1.88,0.27C177,101.16,176.46,101.18,175.99,101.18z"/>
	</g>
</g>
</svg>
