<?xml version="1.0" encoding="utf-8"?>
<!-- Generator: Adobe Illustrator 25.2.0, SVG Export Plug-In . SVG Version: 6.00 Build 0)  -->
<svg version="1.1" id="Layer_1" xmlns="http://www.w3.org/2000/svg" xmlns:xlink="http://www.w3.org/1999/xlink" x="0px" y="0px"
	 viewBox="0 0 27.13 27.11" enable-background="new 0 0 27.13 27.11" xml:space="preserve">
<g>
	<g>
		<path fill="#9ACA3C" d="M13.56,27.11C6.08,27.09,0.01,20.99,0.03,13.52C0.05,6.07,6.16-0.02,13.61,0.01
			c7.47,0.03,13.55,6.14,13.52,13.61C27.11,21.05,21,27.13,13.56,27.11z M21.83,23.65c3.82-3.01,5.87-8.45,4.29-13.8
			C24.51,4.39,19.51,0.6,13.8,0.51C8.13,0.42,3.06,4.03,1.24,9.47c-1.77,5.29,0.13,10.94,4.09,14.13c0,0,1.01,0.78,1.16,0.88
			c2.16,1.39,4.51,2.08,7.08,2.16c0.84-0.1,1.68-0.16,2.51-0.31c1.67-0.3,3.21-0.95,4.63-1.89C20.79,24.39,21.83,23.65,21.83,23.65z
			"/>
	</g>
	<polygon fill="#9ACA3C" points="13.58,14.26 14.25,14.26 14.8,26.63 12.81,26.63 	"/>
	<polygon fill="#9ACA3C" points="15.22,14.26 15.97,14.26 18.38,25.76 16.18,26.63 	"/>
	<polygon fill="#9ACA3C" points="12.53,14.26 11.77,14.26 9.14,26.25 11.34,26.74 	"/>
	<polygon fill="#9ACA3C" points="16.8,14.26 17.4,14.26 21.42,24.03 19.52,25.39 	"/>
	<polygon fill="#9ACA3C" points="10.95,14.26 10.24,14.26 6.13,24.56 8.06,25.56 	"/>
	<polygon fill="#9ACA3C" points="18.15,14.25 18.89,14.25 23.72,21.91 22.32,23.35 	"/>
	<polygon fill="#9ACA3C" points="9.36,14.26 8.53,14.26 3.64,22.07 5.28,23.64 	"/>
	<polygon fill="#9ACA3C" points="7.36,14.26 6.5,14.26 1.69,19.45 2.81,20.97 	"/>
	<polygon fill="#9ACA3C" points="19.82,14.26 20.69,14.26 25.5,19.45 24.39,21 	"/>
	<polygon fill="#9ACA3C" points="5.14,14.26 3.51,14.26 0.39,14.25 1.05,17.99 	"/>
	<polygon fill="#9ACA3C" points="27.09,14.27 25.51,14.27 21.83,14.26 26.01,17.99 	"/>
	<circle fill="#9ACA3C" cx="13.42" cy="8.39" r="1.86"/>
	<polygon fill="#9ACA3C" points="13.2,10.9 13.71,10.9 13.47,13.56 	"/>
	<polygon fill="#9ACA3C" points="13.2,6 13.71,6 13.47,3.34 	"/>
	<polygon fill="#9ACA3C" points="10.97,8.14 10.97,8.64 8.32,8.4 	"/>
	<polygon fill="#9ACA3C" points="15.87,8.14 15.87,8.64 18.53,8.4 	"/>
	<polygon fill="#9ACA3C" points="11.4,9.8 11.73,10.18 9.57,11.74 	"/>
	<polygon fill="#9ACA3C" points="15.1,6.58 15.43,6.97 17.28,5.04 	"/>
	<polygon fill="#9ACA3C" points="11.78,6.56 11.44,6.93 9.62,4.98 	"/>
	<polygon fill="#9ACA3C" points="15.42,9.83 15.08,10.21 17.22,11.8 	"/>
</g>
</svg>
