<?xml version="1.0" encoding="utf-8"?>
<!-- Generator: Adobe Illustrator 25.2.0, SVG Export Plug-In . SVG Version: 6.00 Build 0)  -->
<svg version="1.1" id="Layer_1" xmlns="http://www.w3.org/2000/svg" xmlns:xlink="http://www.w3.org/1999/xlink" x="0px" y="0px"
	 viewBox="0 0 24.84 24.84" enable-background="new 0 0 24.84 24.84" xml:space="preserve">
<g>
	<g>
		<g>
			<path fill="#58595B" d="M12.4,24.84C5.55,24.82-0.02,19.23,0,12.38C0.02,5.55,5.62-0.03,12.44,0
				c6.85,0.03,12.41,5.63,12.39,12.47C24.82,19.28,19.21,24.86,12.4,24.84z M19.76,21.39c3.39-2.67,5.22-7.51,3.81-12.28
				c-1.43-4.86-5.88-8.22-10.95-8.31C7.57,0.73,3.06,3.94,1.44,8.78c-1.57,4.71,0.12,9.73,3.64,12.57c0,0,0.9,0.69,1.03,0.78
				c1.92,1.23,4.01,1.85,6.3,1.92c0.74-0.09,1.5-0.14,2.23-0.27c1.49-0.27,2.86-0.85,4.12-1.68C18.83,22.05,19.76,21.39,19.76,21.39
				z"/>
		</g>
		<polygon fill="#58595B" points="12.42,13.06 13.03,13.06 13.54,24.05 11.71,24.05 		"/>
		<polygon fill="#58595B" points="13.92,13.06 14.61,13.06 16.82,23.6 14.8,24.05 		"/>
		<polygon fill="#58595B" points="11.46,13.06 10.76,13.06 8.55,23.6 10.57,24.05 		"/>
		<polygon fill="#58595B" points="15.37,13.06 15.91,13.06 19.6,22.01 17.86,23.26 		"/>
		<polygon fill="#58595B" points="10,13.06 9.36,13.06 5.59,22.5 7.36,23.41 		"/>
		<polygon fill="#58595B" points="16.6,13.05 17.29,13.05 21.71,20.07 20.42,21.39 		"/>
		<polygon fill="#58595B" points="8.55,13.06 7.79,13.06 3.31,20.21 4.81,21.66 		"/>
		<polygon fill="#58595B" points="6.72,13.06 5.93,13.06 1.52,17.82 2.61,19.12 		"/>
		<polygon fill="#58595B" points="18.14,13.06 18.93,13.06 23.34,17.82 22.25,19.12 		"/>
		<polygon fill="#58595B" points="4.68,13.06 3.19,13.06 0.33,13.05 1.12,16.31 		"/>
		<polygon fill="#58595B" points="24.78,13.07 23.35,13.07 19.98,13.06 23.81,16.48 		"/>
		<circle fill="#58595B" cx="12.27" cy="7.68" r="1.7"/>
		<polygon fill="#58595B" points="12.07,9.98 12.53,9.98 12.31,12.42 		"/>
		<polygon fill="#58595B" points="12.07,5.49 12.53,5.49 12.31,3.06 		"/>
		<polygon fill="#58595B" points="10.03,7.45 10.03,7.91 7.59,7.69 		"/>
		<polygon fill="#58595B" points="14.52,7.45 14.52,7.91 16.95,7.69 		"/>
		<polygon fill="#58595B" points="10.42,8.97 10.73,9.32 8.74,10.75 		"/>
		<polygon fill="#58595B" points="13.81,6.02 14.11,6.38 15.81,4.61 		"/>
		<polygon fill="#58595B" points="10.77,6 10.46,6.35 8.79,4.55 		"/>
		<polygon fill="#58595B" points="14.11,9 13.8,9.34 15.76,10.81 		"/>
	</g>
</g>
</svg>
