<?xml version="1.0" encoding="utf-8"?>
<!-- Generator: Adobe Illustrator 25.2.0, SVG Export Plug-In . SVG Version: 6.00 Build 0)  -->
<svg version="1.1" id="Layer_1" xmlns="http://www.w3.org/2000/svg" xmlns:xlink="http://www.w3.org/1999/xlink" x="0px" y="0px"
	 viewBox="0 0 16.18 16.44" enable-background="new 0 0 16.18 16.44" xml:space="preserve">
<rect x="4.59" y="6.25" fill="#9ACA3C" width="5.39" height="2.73"/>
<g>
	<rect x="5.39" y="7.02" fill="#9ACA3C" width="5.39" height="2.73"/>
	<path fill="#FFFFFF" d="M11.01,9.97H5.16V6.8h5.84V9.97z M5.61,9.52h4.95V7.25H5.61V9.52z"/>
</g>
<g>
	<rect x="6.46" y="7.99" fill="#9ACA3C" width="5.39" height="2.73"/>
	<path fill="#FFFFFF" d="M12.08,10.94H6.24V7.77h5.84V10.94z M6.69,10.49h4.95V8.22H6.69V10.49z"/>
</g>
<g>
	<path fill="#9ACA3C" d="M8.08,16.44C3.62,16.43,0,12.79,0.01,8.33c0.01-4.45,3.66-8.08,8.1-8.06c4.46,0.02,8.08,3.66,8.07,8.12
		C16.16,12.82,12.52,16.45,8.08,16.44z M12.87,14.2c2.21-1.74,3.4-4.89,2.48-7.99c-0.93-3.16-3.83-5.35-7.13-5.41
		C4.94,0.75,2,2.84,0.95,5.99c-1.02,3.07,0.08,6.34,2.37,8.18c0,0,0.58,0.45,0.67,0.51c1.25,0.8,2.61,1.21,4.1,1.25
		c0.48-0.06,0.97-0.09,1.45-0.18c0.97-0.17,1.86-0.55,2.68-1.09C12.27,14.62,12.87,14.2,12.87,14.2z"/>
</g>
<g>
	<g>
		<path fill="#9ACA3C" d="M6.63,13.02c-0.02,0-0.04,0-0.06-0.01c-1.99-0.67-3.33-2.53-3.33-4.63c0-2.69,2.19-4.88,4.88-4.88
			c0.11,0,0.19,0.09,0.19,0.19c0,0.11-0.09,0.19-0.19,0.19c-2.48,0-4.5,2.02-4.5,4.5c0,1.94,1.23,3.65,3.07,4.26
			c0.1,0.03,0.16,0.14,0.12,0.24C6.78,12.97,6.71,13.02,6.63,13.02z"/>
	</g>
	<g>
		<path fill="#9ACA3C" d="M7.18,4.76c-0.05,0-0.1-0.02-0.14-0.06C6.97,4.63,6.97,4.5,7.05,4.43l0.78-0.74L7.05,2.96
			C6.97,2.89,6.97,2.77,7.04,2.69c0.07-0.08,0.2-0.08,0.27-0.01L8.4,3.69L7.31,4.71C7.28,4.75,7.23,4.76,7.18,4.76z"/>
	</g>
	<g>
		<path fill="#9ACA3C" d="M9.03,14.13c-0.05,0-0.09-0.02-0.13-0.05l-1.08-1.01l1.08-1.02c0.08-0.07,0.2-0.07,0.27,0.01
			c0.07,0.08,0.07,0.2-0.01,0.27l-0.78,0.74l0.78,0.73c0.08,0.07,0.08,0.19,0.01,0.27C9.13,14.11,9.08,14.13,9.03,14.13z"/>
	</g>
	<g>
		<path fill="#9ACA3C" d="M8.11,13.26c-0.11,0-0.19-0.09-0.19-0.19c0-0.11,0.09-0.19,0.19-0.19c2.48,0,4.5-2.02,4.5-4.49
			c0-2.07-1.4-3.86-3.41-4.36C9.1,3.99,9.04,3.89,9.06,3.78c0.03-0.1,0.13-0.17,0.23-0.14C11.47,4.18,13,6.13,13,8.38
			C13,11.07,10.81,13.26,8.11,13.26z"/>
	</g>
</g>
</svg>
