<?xml version="1.0" encoding="utf-8"?>
<!-- Generator: Adobe Illustrator 25.2.0, SVG Export Plug-In . SVG Version: 6.00 Build 0)  -->
<svg version="1.1" id="Layer_1" xmlns="http://www.w3.org/2000/svg" xmlns:xlink="http://www.w3.org/1999/xlink" x="0px" y="0px"
	 viewBox="0 0 15.31 15.32" enable-background="new 0 0 15.31 15.32" xml:space="preserve">
<g>
	<g>
		<path fill="#9ACA3C" d="M7.66,15.32C3.43,15.32,0,11.88,0,7.66C0,3.44,3.43,0,7.66,0c4.22,0,7.66,3.44,7.66,7.66
			C15.31,11.88,11.88,15.32,7.66,15.32z M7.66,0.48c-3.96,0-7.18,3.22-7.18,7.18c0,3.96,3.22,7.18,7.18,7.18s7.18-3.22,7.18-7.18
			C14.84,3.7,11.62,0.48,7.66,0.48z"/>
	</g>
	<g>
		<g>
			<path fill="#9ACA3C" d="M5.79,6.21c-0.13,0-0.23-0.1-0.23-0.23l0.01-2.55c0.13-0.46,0.75-1.32,2.1-1.32
				c1.69,0,2.11,1.35,2.11,1.36l0.01,0.06v1.52c0,0.13-0.1,0.23-0.23,0.23c-0.13,0-0.23-0.1-0.23-0.23V3.57
				c-0.06-0.17-0.43-1-1.65-1c-1.22,0-1.58,0.79-1.64,0.96v2.44C6.02,6.1,5.92,6.21,5.79,6.21z"/>
		</g>
		<g>
			<path fill="#9ACA3C" d="M10.2,12.1H4.89c-0.71,0-1.28-0.58-1.28-1.28V7.28C3.61,6.58,4.19,6,4.89,6h5.31
				c0.71,0,1.28,0.58,1.28,1.28v3.53C11.49,11.53,10.91,12.1,10.2,12.1z M4.89,6.46c-0.45,0-0.82,0.37-0.82,0.82v3.53
				c0,0.45,0.37,0.82,0.82,0.82h5.31c0.45,0,0.82-0.37,0.82-0.82V7.28c0-0.45-0.37-0.82-0.82-0.82H4.89z"/>
		</g>
	</g>
	<g>
		<path fill="#9ACA3C" d="M8.09,10.39L7.64,9.75C7.62,9.71,7.59,9.68,7.57,9.63C7.54,9.69,7.5,9.74,7.47,9.79L7.02,10.4l-0.55-0.39
			l0.46-0.63c0.02-0.04,0.05-0.07,0.09-0.12C6.96,9.25,6.91,9.23,6.86,9.22L6.13,8.98l0.2-0.63l0.74,0.23
			c0.05,0.02,0.1,0.02,0.15,0.05C7.2,8.59,7.2,8.53,7.2,8.47V7.7h0.66v0.77c0,0.05,0,0.1-0.01,0.15C7.91,8.6,7.97,8.59,8.03,8.56
			l0.71-0.24l0.22,0.65L8.22,9.19c-0.05,0.02-0.1,0.03-0.15,0.03c0.04,0.04,0.08,0.09,0.12,0.15L8.64,10L8.09,10.39z"/>
	</g>
</g>
</svg>
