<?xml version="1.0" encoding="utf-8"?>
<!-- Generator: Adobe Illustrator 25.2.0, SVG Export Plug-In . SVG Version: 6.00 Build 0)  -->
<svg version="1.1" id="Layer_1" xmlns="http://www.w3.org/2000/svg" xmlns:xlink="http://www.w3.org/1999/xlink" x="0px" y="0px"
	 viewBox="0 0 27.14 27.14" enable-background="new 0 0 27.14 27.14" xml:space="preserve">
<g>
	<g>
		<path fill="#58595B" d="M0.77,14.25h25.83c0,0-0.17,11.89-12.98,12.33C0.8,27.03,0.77,14.25,0.77,14.25z"/>
		<g>
			<path fill="#58595B" d="M13.56,27.12C6.08,27.09,0,21,0.02,13.53C0.04,6.07,6.16-0.01,13.6,0.01
				c7.47,0.03,13.55,6.14,13.52,13.61C27.1,21.06,20.99,27.14,13.56,27.12z M21.58,23.36c3.7-2.92,5.7-8.2,4.16-13.4
				c-1.56-5.3-6.42-8.97-11.95-9.06C8.29,0.81,3.36,4.32,1.6,9.59c-1.72,5.14,0.13,10.62,3.97,13.72c0,0,0.98,0.76,1.13,0.85
				c2.09,1.34,4.38,2.02,6.87,2.09c0.81-0.1,1.63-0.15,2.44-0.3c1.62-0.29,3.12-0.92,4.49-1.83C20.57,24.07,21.58,23.36,21.58,23.36
				z"/>
		</g>
		<circle fill="#FFFFFF" cx="5.95" cy="16.62" r="0.31"/>
		<circle fill="#FFFFFF" cx="16.31" cy="17.03" r="0.11"/>
		<circle fill="#FFFFFF" cx="13.08" cy="18.06" r="0.15"/>
		<circle fill="#FFFFFF" cx="11.15" cy="19.04" r="0.06"/>
		<circle fill="#FFFFFF" cx="10.45" cy="20.14" r="0.31"/>
		<circle fill="#FFFFFF" cx="9.07" cy="16.65" r="0.34"/>
		<circle fill="#FFFFFF" cx="8.14" cy="17.98" r="0.08"/>
		<circle fill="#FFFFFF" cx="8.41" cy="18.84" r="0.2"/>
		<circle fill="#FFFFFF" cx="9.35" cy="21.7" r="0.28"/>
		<circle fill="#FFFFFF" cx="12.29" cy="22.62" r="0.34"/>
		<circle fill="#FFFFFF" cx="14.74" cy="22.16" r="0.46"/>
		<circle fill="#FFFFFF" cx="16.37" cy="21.35" r="0.51"/>
		<path fill="#FFFFFF" d="M18.81,20.14c0,0-0.09,0-0.2,0s-0.2,0-0.2,0s0.09,0,0.2,0S18.81,20.14,18.81,20.14z"/>
		<circle fill="#FFFFFF" cx="20.55" cy="19.33" r="0.49"/>
		<circle fill="#FFFFFF" cx="20.89" cy="17.9" r="0.34"/>
		<path fill="#FFFFFF" d="M21.22,16.31c0,0-0.08,0-0.17,0c-0.09,0-0.17,0-0.17,0s0.08,0,0.17,0C21.15,16.31,21.22,16.31,21.22,16.31
			z"/>
		<circle fill="#FFFFFF" cx="18.58" cy="17.73" r="0.17"/>
		<circle fill="#FFFFFF" cx="17.54" cy="19.21" r="0.11"/>
		<circle fill="#FFFFFF" cx="18.2" cy="20.75" r="0.1"/>
		<circle fill="#FFFFFF" cx="19.08" cy="22" r="0.15"/>
		<circle fill="#FFFFFF" cx="22.91" cy="18.94" r="0.31"/>
		<circle fill="#FFFFFF" cx="16.59" cy="22.9" r="0.28"/>
		<circle fill="#FFFFFF" cx="14.6" cy="18.92" r="0.08"/>
		<path fill="#FFFFFF" d="M14.28,16.31c0,0-0.08,0-0.18,0c-0.1,0-0.18,0-0.18,0s0.08,0,0.18,0C14.19,16.31,14.28,16.31,14.28,16.31z
			"/>
		<circle fill="#FFFFFF" cx="11.08" cy="15.56" r="0.32"/>
		<circle fill="#FFFFFF" cx="6.95" cy="15.38" r="0.14"/>
		<circle fill="#FFFFFF" cx="3.39" cy="14.94" r="0.13"/>
		<circle fill="#FFFFFF" cx="3.79" cy="17.06" r="0.08"/>
		<circle fill="#FFFFFF" cx="4.76" cy="18.58" r="0.16"/>
		<circle fill="#FFFFFF" cx="6.1" cy="19.98" r="0.15"/>
		<circle fill="#FFFFFF" cx="15.12" cy="15.62" r="0.38"/>
		<circle fill="#FFFFFF" cx="22.57" cy="15.71" r="0.34"/>
		<circle fill="#FFFFFF" cx="23.8" cy="17.23" r="0.09"/>
		
			<ellipse transform="matrix(0.7071 -0.7071 0.7071 0.7071 -9.885 4.9915)" fill="#58595B" cx="1.08" cy="14.43" rx="0.49" ry="0.32"/>
		
			<ellipse transform="matrix(0.0815 -0.9967 0.9967 0.0815 -12.6499 15.0279)" fill="#58595B" cx="1.83" cy="14.38" rx="0.32" ry="0.49"/>
		
			<ellipse transform="matrix(0.0815 -0.9967 0.9967 0.0815 -11.7693 15.7338)" fill="#58595B" cx="2.65" cy="14.25" rx="0.32" ry="0.49"/>
		
			<ellipse transform="matrix(0.0815 -0.9967 0.9967 0.0815 -11.2626 16.3826)" fill="#58595B" cx="3.26" cy="14.3" rx="0.32" ry="0.24"/>
		
			<ellipse transform="matrix(0.0815 -0.9967 0.9967 0.0815 -10.7003 16.9928)" fill="#58595B" cx="3.87" cy="14.3" rx="0.32" ry="0.49"/>
		
			<ellipse transform="matrix(0.7071 -0.7071 0.7071 0.7071 -8.9083 7.4348)" fill="#58595B" cx="4.52" cy="14.47" rx="0.49" ry="0.32"/>
		
			<ellipse transform="matrix(0.0815 -0.9967 0.9967 0.0815 -9.5348 18.4933)" fill="#58595B" cx="5.27" cy="14.42" rx="0.32" ry="0.49"/>
		
			<ellipse transform="matrix(0.0815 -0.9967 0.9967 0.0815 -8.6543 19.1993)" fill="#58595B" cx="6.09" cy="14.29" rx="0.32" ry="0.49"/>
		
			<ellipse transform="matrix(0.0815 -0.9967 0.9967 0.0815 -8.1476 19.8481)" fill="#58595B" cx="6.69" cy="14.34" rx="0.32" ry="0.24"/>
		
			<ellipse transform="matrix(0.0815 -0.9967 0.9967 0.0815 -7.5853 20.4582)" fill="#58595B" cx="7.31" cy="14.34" rx="0.32" ry="0.49"/>
		
			<ellipse transform="matrix(0.7071 -0.7071 0.7071 0.7071 -7.9062 9.8541)" fill="#58595B" cx="7.94" cy="14.47" rx="0.49" ry="0.32"/>
		
			<ellipse transform="matrix(0.0815 -0.9967 0.9967 0.0815 -6.3921 21.9034)" fill="#58595B" cx="8.69" cy="14.42" rx="0.32" ry="0.49"/>
		
			<ellipse transform="matrix(0.0815 -0.9967 0.9967 0.0815 -5.5116 22.6094)" fill="#58595B" cx="9.51" cy="14.29" rx="0.32" ry="0.49"/>
		
			<ellipse transform="matrix(0.0815 -0.9967 0.9967 0.0815 -5.0049 23.2582)" fill="#58595B" cx="10.12" cy="14.34" rx="0.32" ry="0.24"/>
		
			<ellipse transform="matrix(0.0815 -0.9967 0.9967 0.0815 -4.4426 23.8683)" fill="#58595B" cx="10.73" cy="14.34" rx="0.32" ry="0.49"/>
		
			<ellipse transform="matrix(0.7071 -0.7071 0.7071 0.7071 -6.9321 12.1892)" fill="#58595B" cx="11.25" cy="14.46" rx="0.49" ry="0.32"/>
		
			<ellipse transform="matrix(0.0815 -0.9967 0.9967 0.0815 -3.3475 25.1906)" fill="#58595B" cx="11.99" cy="14.41" rx="0.32" ry="0.49"/>
		
			<ellipse transform="matrix(0.0815 -0.9967 0.9967 0.0815 -2.467 25.8965)" fill="#58595B" cx="12.82" cy="14.29" rx="0.32" ry="0.49"/>
		
			<ellipse transform="matrix(0.0815 -0.9967 0.9967 0.0815 -1.9603 26.5453)" fill="#58595B" cx="13.42" cy="14.34" rx="0.32" ry="0.24"/>
		
			<ellipse transform="matrix(0.0815 -0.9967 0.9967 0.0815 -1.398 27.1555)" fill="#58595B" cx="14.03" cy="14.34" rx="0.32" ry="0.49"/>
		
			<ellipse transform="matrix(0.7071 -0.7071 0.7071 0.7071 -5.8864 14.5633)" fill="#58595B" cx="14.64" cy="14.39" rx="0.49" ry="0.32"/>
		
			<ellipse transform="matrix(0.0815 -0.9967 0.9967 0.0815 -0.16 28.4988)" fill="#58595B" cx="15.38" cy="14.34" rx="0.32" ry="0.49"/>
		
			<ellipse transform="matrix(0.0815 -0.9967 0.9967 0.0815 0.7205 29.2048)" fill="#58595B" cx="16.21" cy="14.21" rx="0.32" ry="0.49"/>
		
			<ellipse transform="matrix(0.0815 -0.9967 0.9967 0.0815 1.2272 29.8536)" fill="#58595B" cx="16.81" cy="14.26" rx="0.32" ry="0.24"/>
		
			<ellipse transform="matrix(0.0815 -0.9967 0.9967 0.0815 1.7895 30.4637)" fill="#58595B" cx="17.42" cy="14.26" rx="0.32" ry="0.49"/>
		
			<ellipse transform="matrix(0.7071 -0.7071 0.7071 0.7071 -4.9417 16.8275)" fill="#58595B" cx="17.84" cy="14.38" rx="0.49" ry="0.32"/>
		
			<ellipse transform="matrix(0.0815 -0.9967 0.9967 0.0815 2.7926 31.6862)" fill="#58595B" cx="18.59" cy="14.33" rx="0.32" ry="0.49"/>
		
			<ellipse transform="matrix(0.0815 -0.9967 0.9967 0.0815 3.6731 32.3921)" fill="#58595B" cx="19.41" cy="14.2" rx="0.32" ry="0.49"/>
		
			<ellipse transform="matrix(0.0815 -0.9967 0.9967 0.0815 4.1798 33.0409)" fill="#58595B" cx="20.02" cy="14.25" rx="0.32" ry="0.24"/>
		
			<ellipse transform="matrix(0.0815 -0.9967 0.9967 0.0815 4.7421 33.6511)" fill="#58595B" cx="20.63" cy="14.25" rx="0.32" ry="0.49"/>
		
			<ellipse transform="matrix(0.7071 -0.7071 0.7071 0.7071 -3.9345 19.2757)" fill="#58595B" cx="21.3" cy="14.39" rx="0.49" ry="0.32"/>
		
			<ellipse transform="matrix(0.0815 -0.9967 0.9967 0.0815 5.9613 35.141)" fill="#58595B" cx="22.05" cy="14.34" rx="0.32" ry="0.49"/>
		
			<ellipse transform="matrix(0.0815 -0.9967 0.9967 0.0815 6.8419 35.847)" fill="#58595B" cx="22.87" cy="14.21" rx="0.32" ry="0.49"/>
		
			<ellipse transform="matrix(0.0815 -0.9967 0.9967 0.0815 7.3486 36.4958)" fill="#58595B" cx="23.47" cy="14.26" rx="0.32" ry="0.24"/>
		
			<ellipse transform="matrix(0.0815 -0.9967 0.9967 0.0815 7.9109 37.1059)" fill="#58595B" cx="24.09" cy="14.26" rx="0.32" ry="0.49"/>
		
			<ellipse transform="matrix(0.7071 -0.7071 0.7071 0.7071 -3.373 20.7166)" fill="#58595B" cx="23.32" cy="14.43" rx="0.49" ry="0.32"/>
		
			<ellipse transform="matrix(0.0815 -0.9967 0.9967 0.0815 7.7743 37.1936)" fill="#58595B" cx="24.07" cy="14.38" rx="0.32" ry="0.49"/>
		
			<ellipse transform="matrix(0.0815 -0.9967 0.9967 0.0815 8.6549 37.8996)" fill="#58595B" cx="24.89" cy="14.25" rx="0.32" ry="0.49"/>
		
			<ellipse transform="matrix(0.0815 -0.9967 0.9967 0.0815 9.1616 38.5484)" fill="#58595B" cx="25.49" cy="14.3" rx="0.32" ry="0.24"/>
		
			<ellipse transform="matrix(0.0815 -0.9967 0.9967 0.0815 9.7239 39.1585)" fill="#58595B" cx="26.11" cy="14.3" rx="0.32" ry="0.49"/>
	</g>
	<g>
		<circle fill="#58595B" cx="13.24" cy="13.19" r="1.86"/>
		<polygon fill="#58595B" points="13.01,15.7 13.52,15.7 13.28,18.36 		"/>
		<polygon fill="#58595B" points="13.01,10.8 13.52,10.8 13.28,8.14 		"/>
		<polygon fill="#58595B" points="10.79,12.93 10.79,13.44 8.13,13.2 		"/>
		<polygon fill="#58595B" points="15.68,12.93 15.68,13.44 18.34,13.2 		"/>
		<polygon fill="#58595B" points="11.21,14.6 11.55,14.98 9.38,16.54 		"/>
		<polygon fill="#58595B" points="14.91,11.38 15.24,11.76 17.09,9.84 		"/>
		<polygon fill="#58595B" points="11.59,11.36 11.25,11.73 9.43,9.78 		"/>
		<polygon fill="#58595B" points="15.24,14.63 14.9,15.01 17.04,16.6 		"/>
	</g>
</g>
</svg>
