<?xml version="1.0" encoding="utf-8"?>
<!-- Generator: Adobe Illustrator 25.2.0, SVG Export Plug-In . SVG Version: 6.00 Build 0)  -->
<svg version="1.1" id="Layer_1" xmlns="http://www.w3.org/2000/svg" xmlns:xlink="http://www.w3.org/1999/xlink" x="0px" y="0px"
	 viewBox="0 0 27.14 27.15" enable-background="new 0 0 27.14 27.15" xml:space="preserve">
<g>
	<g>
		<path fill="#9ACA3C" d="M0.31,14.27h26.37c0,0,0.01,5.72-4.23,9.4c-1.83,1.59-4.38,2.92-8.24,3.05
			C1.39,27.16,0.31,14.27,0.31,14.27z"/>
		<g>
			<path fill="#9ACA3C" d="M13.56,27.13C6.08,27.11,0.01,21.02,0.03,13.54C0.05,6.09,6.16,0,13.61,0.03
				c7.47,0.03,13.55,6.14,13.52,13.61C27.11,21.07,21,27.15,13.56,27.13z M21.83,23.67c3.82-3.01,5.87-8.45,4.29-13.8
				c-1.61-5.46-6.61-9.25-12.31-9.34C8.13,0.44,3.06,4.05,1.24,9.49c-1.77,5.29,0.13,10.94,4.09,14.13c0,0,1.01,0.78,1.16,0.88
				c2.16,1.39,4.51,2.08,7.08,2.16c0.84-0.1,1.68-0.16,2.51-0.31c1.67-0.3,3.21-0.95,4.63-1.89C20.79,24.41,21.83,23.67,21.83,23.67
				z"/>
		</g>
		<circle fill="#FFFFFF" cx="5.96" cy="16.63" r="0.31"/>
		<circle fill="#FFFFFF" cx="16.32" cy="17.05" r="0.11"/>
		<circle fill="#FFFFFF" cx="13.09" cy="18.07" r="0.15"/>
		<circle fill="#FFFFFF" cx="11.16" cy="19.05" r="0.06"/>
		<circle fill="#FFFFFF" cx="10.46" cy="20.15" r="0.31"/>
		<circle fill="#FFFFFF" cx="9.08" cy="16.66" r="0.34"/>
		<circle fill="#FFFFFF" cx="8.14" cy="18" r="0.08"/>
		<circle fill="#FFFFFF" cx="8.42" cy="18.85" r="0.2"/>
		<circle fill="#FFFFFF" cx="9.35" cy="21.72" r="0.28"/>
		<circle fill="#FFFFFF" cx="12.29" cy="22.63" r="0.34"/>
		<circle fill="#FFFFFF" cx="14.74" cy="22.17" r="0.46"/>
		<circle fill="#FFFFFF" cx="16.38" cy="21.36" r="0.51"/>
		<path fill="#FFFFFF" d="M18.81,20.15c0,0-0.09,0-0.2,0c-0.11,0-0.2,0-0.2,0s0.09,0,0.2,0C18.72,20.15,18.81,20.15,18.81,20.15z"/>
		<circle fill="#FFFFFF" cx="20.56" cy="19.34" r="0.49"/>
		<circle fill="#FFFFFF" cx="20.89" cy="17.92" r="0.34"/>
		<path fill="#FFFFFF" d="M21.23,16.33c0,0-0.08,0-0.17,0s-0.17,0-0.17,0s0.08,0,0.17,0S21.23,16.33,21.23,16.33z"/>
		<circle fill="#FFFFFF" cx="18.58" cy="17.75" r="0.17"/>
		<circle fill="#FFFFFF" cx="17.55" cy="19.23" r="0.11"/>
		<circle fill="#FFFFFF" cx="18.2" cy="20.76" r="0.1"/>
		<circle fill="#FFFFFF" cx="19.09" cy="22.02" r="0.15"/>
		<circle fill="#FFFFFF" cx="22.91" cy="18.96" r="0.31"/>
		<circle fill="#FFFFFF" cx="16.6" cy="22.92" r="0.28"/>
		<circle fill="#FFFFFF" cx="14.61" cy="18.93" r="0.08"/>
		<path fill="#FFFFFF" d="M14.28,16.33c0,0-0.08,0-0.18,0c-0.1,0-0.18,0-0.18,0s0.08,0,0.18,0C14.2,16.33,14.28,16.33,14.28,16.33z"
			/>
		<circle fill="#FFFFFF" cx="11.08" cy="15.58" r="0.32"/>
		<circle fill="#FFFFFF" cx="6.95" cy="15.39" r="0.14"/>
		<circle fill="#FFFFFF" cx="3.39" cy="14.96" r="0.13"/>
		<circle fill="#FFFFFF" cx="3.8" cy="17.08" r="0.08"/>
		<circle fill="#FFFFFF" cx="4.77" cy="18.6" r="0.16"/>
		<circle fill="#FFFFFF" cx="6.11" cy="20" r="0.15"/>
		<circle fill="#FFFFFF" cx="15.12" cy="15.64" r="0.38"/>
		<circle fill="#FFFFFF" cx="22.58" cy="15.73" r="0.34"/>
		<circle fill="#FFFFFF" cx="23.8" cy="17.25" r="0.09"/>
		
			<ellipse transform="matrix(0.7071 -0.7071 0.7071 0.7071 -9.8954 5.0003)" fill="#9ACA3C" cx="1.09" cy="14.45" rx="0.49" ry="0.32"/>
		
			<ellipse transform="matrix(0.0815 -0.9967 0.9967 0.0815 -12.6619 15.049)" fill="#9ACA3C" cx="1.83" cy="14.39" rx="0.32" ry="0.49"/>
		
			<ellipse transform="matrix(0.0815 -0.9967 0.9967 0.0815 -11.7813 15.7549)" fill="#9ACA3C" cx="2.66" cy="14.27" rx="0.32" ry="0.49"/>
		
			<ellipse transform="matrix(0.0815 -0.9967 0.9967 0.0815 -11.2746 16.4037)" fill="#9ACA3C" cx="3.26" cy="14.32" rx="0.32" ry="0.24"/>
		
			<ellipse transform="matrix(0.0815 -0.9967 0.9967 0.0815 -10.7123 17.0138)" fill="#9ACA3C" cx="3.87" cy="14.32" rx="0.32" ry="0.49"/>
		
			<ellipse transform="matrix(0.7071 -0.7071 0.7071 0.7071 -8.9188 7.4436)" fill="#9ACA3C" cx="4.53" cy="14.49" rx="0.49" ry="0.32"/>
		
			<ellipse transform="matrix(0.0815 -0.9967 0.9967 0.0815 -9.5468 18.5144)" fill="#9ACA3C" cx="5.27" cy="14.44" rx="0.32" ry="0.49"/>
		
			<ellipse transform="matrix(0.0815 -0.9967 0.9967 0.0815 -8.6663 19.2204)" fill="#9ACA3C" cx="6.09" cy="14.31" rx="0.32" ry="0.49"/>
		
			<ellipse transform="matrix(0.0815 -0.9967 0.9967 0.0815 -8.1596 19.8692)" fill="#9ACA3C" cx="6.7" cy="14.36" rx="0.32" ry="0.24"/>
		
			<ellipse transform="matrix(0.0815 -0.9967 0.9967 0.0815 -7.5973 20.4793)" fill="#9ACA3C" cx="7.31" cy="14.36" rx="0.32" ry="0.49"/>
		
			<ellipse transform="matrix(0.7071 -0.7071 0.7071 0.7071 -7.9166 9.8629)" fill="#9ACA3C" cx="7.95" cy="14.49" rx="0.49" ry="0.32"/>
		
			<ellipse transform="matrix(0.0815 -0.9967 0.9967 0.0815 -6.4041 21.9245)" fill="#9ACA3C" cx="8.69" cy="14.44" rx="0.32" ry="0.49"/>
		
			<ellipse transform="matrix(0.0815 -0.9967 0.9967 0.0815 -5.5236 22.6305)" fill="#9ACA3C" cx="9.52" cy="14.31" rx="0.32" ry="0.49"/>
		
			<ellipse transform="matrix(0.0815 -0.9967 0.9967 0.0815 -5.0169 23.2793)" fill="#9ACA3C" cx="10.12" cy="14.36" rx="0.32" ry="0.24"/>
		
			<ellipse transform="matrix(0.0815 -0.9967 0.9967 0.0815 -4.4546 23.8894)" fill="#9ACA3C" cx="10.73" cy="14.36" rx="0.32" ry="0.49"/>
		
			<ellipse transform="matrix(0.7071 -0.7071 0.7071 0.7071 -6.9426 12.198)" fill="#9ACA3C" cx="11.25" cy="14.48" rx="0.49" ry="0.32"/>
		
			<ellipse transform="matrix(0.0815 -0.9967 0.9967 0.0815 -3.3595 25.2116)" fill="#9ACA3C" cx="12" cy="14.43" rx="0.32" ry="0.49"/>
		
			<ellipse transform="matrix(0.0815 -0.9967 0.9967 0.0815 -2.479 25.9176)" fill="#9ACA3C" cx="12.82" cy="14.3" rx="0.32" ry="0.49"/>
		
			<ellipse transform="matrix(0.0815 -0.9967 0.9967 0.0815 -1.9723 26.5664)" fill="#9ACA3C" cx="13.43" cy="14.35" rx="0.32" ry="0.24"/>
		
			<ellipse transform="matrix(0.0815 -0.9967 0.9967 0.0815 -1.41 27.1765)" fill="#9ACA3C" cx="14.04" cy="14.35" rx="0.32" ry="0.49"/>
		
			<ellipse transform="matrix(0.7071 -0.7071 0.7071 0.7071 -5.8969 14.5721)" fill="#9ACA3C" cx="14.64" cy="14.4" rx="0.49" ry="0.32"/>
		
			<ellipse transform="matrix(0.0815 -0.9967 0.9967 0.0815 -0.172 28.5199)" fill="#9ACA3C" cx="15.39" cy="14.35" rx="0.32" ry="0.49"/>
		
			<ellipse transform="matrix(0.0815 -0.9967 0.9967 0.0815 0.7085 29.2259)" fill="#9ACA3C" cx="16.21" cy="14.23" rx="0.32" ry="0.49"/>
		
			<ellipse transform="matrix(0.0815 -0.9967 0.9967 0.0815 1.2152 29.8746)" fill="#9ACA3C" cx="16.82" cy="14.28" rx="0.32" ry="0.24"/>
		
			<ellipse transform="matrix(0.0815 -0.9967 0.9967 0.0815 1.7775 30.4848)" fill="#9ACA3C" cx="17.43" cy="14.28" rx="0.32" ry="0.49"/>
		
			<ellipse transform="matrix(0.7071 -0.7071 0.7071 0.7071 -4.9521 16.8364)" fill="#9ACA3C" cx="17.85" cy="14.4" rx="0.49" ry="0.32"/>
		
			<ellipse transform="matrix(0.0815 -0.9967 0.9967 0.0815 2.7806 31.7073)" fill="#9ACA3C" cx="18.59" cy="14.35" rx="0.32" ry="0.49"/>
		
			<ellipse transform="matrix(0.0815 -0.9967 0.9967 0.0815 3.6611 32.4132)" fill="#9ACA3C" cx="19.42" cy="14.22" rx="0.32" ry="0.49"/>
		
			<ellipse transform="matrix(0.0815 -0.9967 0.9967 0.0815 4.1678 33.062)" fill="#9ACA3C" cx="20.02" cy="14.27" rx="0.32" ry="0.24"/>
		
			<ellipse transform="matrix(0.0815 -0.9967 0.9967 0.0815 4.7301 33.6721)" fill="#9ACA3C" cx="20.63" cy="14.27" rx="0.32" ry="0.49"/>
		
			<ellipse transform="matrix(0.7071 -0.7071 0.7071 0.7071 -3.9449 19.2845)" fill="#9ACA3C" cx="21.31" cy="14.4" rx="0.49" ry="0.32"/>
		
			<ellipse transform="matrix(0.0815 -0.9967 0.9967 0.0815 5.9493 35.1621)" fill="#9ACA3C" cx="22.05" cy="14.35" rx="0.32" ry="0.49"/>
		
			<ellipse transform="matrix(0.0815 -0.9967 0.9967 0.0815 6.8299 35.8681)" fill="#9ACA3C" cx="22.87" cy="14.23" rx="0.32" ry="0.49"/>
		
			<ellipse transform="matrix(0.0815 -0.9967 0.9967 0.0815 7.3366 36.5168)" fill="#9ACA3C" cx="23.48" cy="14.28" rx="0.32" ry="0.24"/>
		
			<ellipse transform="matrix(0.0815 -0.9967 0.9967 0.0815 7.8989 37.127)" fill="#9ACA3C" cx="24.09" cy="14.28" rx="0.32" ry="0.49"/>
		
			<ellipse transform="matrix(0.7071 -0.7071 0.7071 0.7071 -3.3834 20.7255)" fill="#9ACA3C" cx="23.33" cy="14.45" rx="0.49" ry="0.32"/>
		
			<ellipse transform="matrix(0.0815 -0.9967 0.9967 0.0815 7.7623 37.2147)" fill="#9ACA3C" cx="24.07" cy="14.4" rx="0.32" ry="0.49"/>
		
			<ellipse transform="matrix(0.0815 -0.9967 0.9967 0.0815 8.6429 37.9207)" fill="#9ACA3C" cx="24.9" cy="14.27" rx="0.32" ry="0.49"/>
		
			<ellipse transform="matrix(0.0815 -0.9967 0.9967 0.0815 9.1496 38.5695)" fill="#9ACA3C" cx="25.5" cy="14.32" rx="0.32" ry="0.24"/>
		
			<ellipse transform="matrix(0.0815 -0.9967 0.9967 0.0815 9.7119 39.1796)" fill="#9ACA3C" cx="26.11" cy="14.32" rx="0.32" ry="0.49"/>
	</g>
	<g>
		<circle fill="#9ACA3C" cx="13.24" cy="13.21" r="1.86"/>
		<polygon fill="#9ACA3C" points="13.02,15.72 13.53,15.72 13.28,18.38 		"/>
		<polygon fill="#9ACA3C" points="13.02,10.82 13.53,10.82 13.28,8.16 		"/>
		<polygon fill="#9ACA3C" points="10.79,12.95 10.79,13.46 8.13,13.22 		"/>
		<polygon fill="#9ACA3C" points="15.69,12.95 15.69,13.46 18.35,13.22 		"/>
		<polygon fill="#9ACA3C" points="11.22,14.61 11.55,15 9.39,16.56 		"/>
		<polygon fill="#9ACA3C" points="14.91,11.4 15.25,11.78 17.1,9.85 		"/>
		<polygon fill="#9ACA3C" points="11.6,11.37 11.26,11.75 9.44,9.79 		"/>
		<polygon fill="#9ACA3C" points="15.24,14.64 14.9,15.02 17.04,16.62 		"/>
	</g>
</g>
</svg>
