<?xml version="1.0" encoding="utf-8"?>
<!-- Generator: Adobe Illustrator 25.2.0, SVG Export Plug-In . SVG Version: 6.00 Build 0)  -->
<svg version="1.1" id="Layer_1" xmlns="http://www.w3.org/2000/svg" xmlns:xlink="http://www.w3.org/1999/xlink" x="0px" y="0px"
	 viewBox="0 0 15.34 15.34" enable-background="new 0 0 15.34 15.34" xml:space="preserve">
<g>
	<path fill="#9ACA3C" d="M7.66,15.34C3.43,15.33-0.01,11.88,0,7.65C0.01,3.43,3.47-0.02,7.69,0c4.23,0.02,7.67,3.48,7.66,7.7
		C15.33,11.91,11.87,15.36,7.66,15.34z M3.14,13.19c0.04-2.27,1.13-3.79,3.24-4.58C4.8,7.63,4.9,5.69,5.79,4.74
		c0.95-1.02,2.53-1.1,3.56-0.16c0.51,0.47,0.79,1.07,0.81,1.77c0.02,0.98-0.42,1.72-1.23,2.25c2.15,0.8,3.25,2.33,3.28,4.62
		c2.1-1.65,3.22-4.64,2.36-7.58c-0.89-3-3.63-5.08-6.76-5.13c-3.12-0.05-5.9,1.93-6.9,4.92C-0.08,8.33,0.96,11.44,3.14,13.19z
		 M7.67,14.85c0.46-0.06,0.92-0.09,1.38-0.17c0.92-0.17,1.76-0.52,2.54-1.04c0.04-0.03,0.09-0.09,0.09-0.13
		c-0.02-0.43,0.01-0.87-0.07-1.29c-0.38-2.02-2.2-3.41-4.25-3.24c-1.6,0.14-2.72,0.99-3.38,2.45c-0.29,0.64-0.33,1.33-0.31,2.02
		c0,0.1,0.04,0.16,0.12,0.21C4.96,14.43,6.26,14.81,7.67,14.85z M9.68,6.44c0-1.1-0.89-2-2-2c-1.11,0-2.01,0.89-2.01,1.99
		c0,1.11,0.9,2.02,2,2.02C8.77,8.44,9.67,7.54,9.68,6.44z"/>
</g>
</svg>
